<svg xmlns="http://www.w3.org/2000/svg" viewBox="0 0 64 64">
  <defs>
    <linearGradient id="bg" x1="0%" y1="0%" x2="100%" y2="100%">
      <stop offset="0%" stop-color="#4f46e5" />
      <stop offset="100%" stop-color="#0891b2" />
    </linearGradient>
  </defs>
  <rect
    x="3"
    y="3"
    width="58"
    height="58"
    rx="16"
    fill="url(#bg)"
    transform="translate(32 32) scale(1.2) translate(-32 -32)"
  />
  <g transform="translate(32 32) scale(0.7) translate(-32 -32)">
    <path
      d="M27 14v6M17 14v6M17 17h-2a5 5 0 0 0-5 5v7a17 17 0 0 0 34 0v-7a5 5 0 0 0-5-5h-2M26 46a14 14 0 0 0 28 0v-7"
      fill="none"
      stroke="#bbf7d0"
      stroke-width="4.5"
      stroke-linecap="round"
      stroke-linejoin="round"
    />
    <circle cx="54" cy="33" r="5" fill="none" stroke="#bbf7d0" stroke-width="4.5" />
  </g>
</svg>
